<svg id="svg" version="1.1" xmlns="http://www.w3.org/2000/svg" xmlns:xlink="http://www.w3.org/1999/xlink" width="400" height="400" viewBox="0, 0, 400,400"><g id="svgg"><path id="path0" d="M62.400 30.400 C 62.400 30.620,62.165 30.800,61.878 30.800 C 61.103 30.800,58.400 33.407,58.400 34.154 C 58.400 34.509,58.220 34.800,58.000 34.800 C 57.734 34.800,57.600 95.200,57.600 215.200 C 57.600 335.200,57.734 395.600,58.000 395.600 C 58.220 395.600,58.400 395.870,58.400 396.199 C 58.400 396.529,59.037 397.474,59.816 398.299 L 61.231 399.800 200.082 399.800 C 310.808 399.800,338.967 399.699,339.100 399.300 C 339.192 399.025,339.456 398.800,339.686 398.800 C 340.331 398.800,341.600 397.168,341.600 396.339 C 341.600 395.932,341.780 395.600,342.000 395.600 C 342.266 395.600,342.400 335.200,342.400 215.200 C 342.400 95.200,342.266 34.800,342.000 34.800 C 341.780 34.800,341.595 34.485,341.589 34.100 C 341.577 33.351,340.076 31.780,338.328 30.688 C 337.347 30.075,334.361 30.017,303.428 30.005 L 269.600 29.991 269.600 42.196 L 269.600 54.400 273.300 54.451 C 275.335 54.479,285.040 54.614,294.867 54.751 L 312.733 55.000 314.436 56.200 C 315.406 56.883,316.535 58.175,317.058 59.200 L 317.977 61.000 317.989 186.226 L 318.000 311.452 285.771 343.726 L 253.542 376.000 170.566 376.000 C 104.928 376.000,87.402 375.896,86.695 375.500 C 85.221 374.676,83.200 372.683,82.581 371.442 C 82.076 370.429,82.000 349.983,82.000 215.198 L 82.000 60.118 82.906 58.774 C 83.404 58.035,84.589 56.883,85.539 56.215 L 87.267 55.000 105.133 54.751 C 114.960 54.614,124.665 54.479,126.700 54.451 L 130.400 54.400 130.400 42.200 L 130.400 30.000 96.400 30.000 C 74.000 30.000,62.400 30.136,62.400 30.400 " stroke="none" fill="#fbc30d" fill-rule="evenodd"></path><path id="path1" d="M192.500 0.271 C 191.785 0.370,191.200 0.619,191.200 0.825 C 191.200 1.031,190.660 1.200,190.000 1.200 C 189.340 1.200,188.800 1.380,188.800 1.600 C 188.800 1.820,188.480 2.000,188.088 2.000 C 187.697 2.000,187.117 2.360,186.800 2.800 C 186.483 3.240,185.983 3.600,185.689 3.600 C 184.325 3.600,177.200 11.736,177.200 13.293 C 177.200 13.682,177.020 14.000,176.800 14.000 C 176.580 14.000,176.400 14.450,176.400 15.000 C 176.400 15.550,176.220 16.000,176.000 16.000 C 175.780 16.000,175.600 16.529,175.600 17.176 C 175.600 17.823,175.420 18.464,175.200 18.600 C 174.964 18.746,174.800 21.137,174.800 24.424 L 174.800 30.000 153.000 30.000 L 131.200 30.000 131.200 51.151 C 131.200 74.161,131.176 73.897,133.467 76.079 C 136.069 78.557,131.575 78.400,200.000 78.400 C 268.397 78.400,263.941 78.555,266.515 76.089 C 268.866 73.837,268.800 74.557,268.800 51.339 L 268.800 30.000 247.047 30.000 L 225.294 30.000 225.127 23.500 C 225.035 19.925,224.766 16.640,224.530 16.200 C 224.294 15.760,223.749 14.680,223.320 13.800 C 222.891 12.920,222.283 11.757,221.970 11.215 C 221.122 9.750,214.941 3.600,214.317 3.600 C 214.020 3.600,213.517 3.240,213.200 2.800 C 212.883 2.360,212.303 2.000,211.912 2.000 C 211.520 2.000,211.200 1.820,211.200 1.600 C 211.200 1.380,210.675 1.200,210.033 1.200 C 209.392 1.200,208.792 0.975,208.700 0.700 C 208.533 0.197,195.530 -0.147,192.500 0.271 M164.194 115.663 C 163.537 116.138,162.304 117.353,161.454 118.363 C 160.603 119.373,159.160 121.010,158.247 122.000 C 157.334 122.990,154.073 126.680,150.999 130.200 C 147.926 133.720,145.016 137.034,144.534 137.565 C 144.052 138.095,142.610 139.737,141.329 141.213 C 140.048 142.688,138.727 144.074,138.394 144.293 C 137.914 144.607,136.038 143.010,129.357 136.601 C 122.428 129.954,120.664 128.464,119.463 128.238 C 112.417 126.916,109.713 134.325,115.364 139.469 C 116.531 140.531,121.376 145.158,126.131 149.751 C 136.368 159.641,137.747 160.477,140.897 158.700 C 142.079 158.034,148.504 150.962,160.800 136.795 C 162.229 135.148,163.489 133.710,163.600 133.600 C 163.710 133.490,165.073 131.960,166.630 130.200 C 168.186 128.440,169.986 126.405,170.630 125.679 C 173.992 121.882,174.043 118.590,170.784 115.848 C 169.135 114.460,165.981 114.372,164.194 115.663 M191.000 130.991 C 190.780 131.068,190.103 131.240,189.495 131.374 C 184.291 132.522,184.626 141.212,189.931 142.700 C 192.624 143.455,277.737 143.040,279.460 142.263 C 283.623 140.386,283.891 134.464,279.940 131.665 C 279.082 131.058,192.696 130.403,191.000 130.991 M163.721 187.100 C 163.035 187.705,160.525 190.450,158.144 193.200 C 155.763 195.950,153.719 198.290,153.602 198.400 C 153.485 198.510,152.045 200.130,150.401 202.000 C 148.758 203.870,146.601 206.304,145.607 207.409 C 144.613 208.513,142.566 210.808,141.059 212.509 C 137.665 216.336,138.613 216.587,131.897 210.083 C 120.668 199.208,120.658 199.200,118.000 199.200 C 114.022 199.200,111.370 202.575,112.385 206.345 C 112.763 207.747,125.877 221.087,133.791 228.118 C 138.948 232.700,139.111 232.593,155.798 213.600 C 158.215 210.850,160.373 208.403,160.596 208.163 C 160.818 207.922,162.710 205.778,164.800 203.398 C 166.890 201.018,169.540 198.003,170.689 196.697 C 173.806 193.155,174.032 190.059,171.367 187.394 C 169.452 185.479,165.724 185.335,163.721 187.100 M188.549 202.597 C 184.518 205.013,184.750 210.957,188.953 212.951 C 191.135 213.986,277.526 213.938,279.592 212.899 C 283.875 210.747,283.871 204.425,279.586 202.319 C 278.307 201.691,274.803 201.637,234.200 201.623 L 190.200 201.608 188.549 202.597 M190.046 275.201 C 185.634 276.243,184.128 282.208,187.518 285.216 C 189.832 287.270,189.999 287.281,215.432 287.128 L 236.663 287.000 238.096 285.907 C 242.164 282.803,241.041 276.593,236.168 275.240 C 234.324 274.728,192.201 274.693,190.046 275.201 M261.206 275.210 C 256.580 276.297,255.456 282.641,259.337 285.763 L 260.874 287.000 269.737 287.000 C 279.625 287.000,280.131 286.883,281.906 284.175 C 283.993 280.992,282.176 276.242,278.480 275.216 C 276.749 274.735,263.246 274.730,261.206 275.210 " stroke="none" fill="#55828d" fill-rule="evenodd"></path><path id="path2" d="M87.035 55.611 C 84.873 56.692,84.008 57.537,83.152 59.400 C 82.277 61.307,81.953 368.363,82.825 370.674 C 83.405 372.215,85.518 374.344,87.149 375.031 C 88.300 375.517,100.580 375.600,171.000 375.600 L 253.503 375.600 285.752 343.398 L 318.000 311.195 318.000 186.744 C 318.000 94.653,317.881 61.897,317.543 60.769 C 316.896 58.608,314.969 56.444,312.904 55.559 C 310.402 54.486,269.451 54.369,269.043 55.433 C 268.909 55.781,268.800 59.840,268.800 64.453 C 268.800 74.444,268.394 75.599,264.120 77.754 C 262.158 78.744,137.842 78.744,135.880 77.754 C 131.649 75.620,131.232 74.402,131.105 63.800 L 131.000 55.000 109.800 54.914 C 89.461 54.832,88.536 54.860,87.035 55.611 M170.784 115.848 C 174.043 118.590,173.992 121.882,170.630 125.679 C 169.986 126.405,168.186 128.440,166.630 130.200 C 165.073 131.960,163.710 133.490,163.600 133.600 C 163.489 133.710,162.229 135.148,160.800 136.795 C 159.370 138.443,155.340 143.033,151.845 146.995 C 137.745 162.982,139.619 162.781,126.131 149.751 C 121.376 145.158,116.531 140.531,115.364 139.469 C 109.713 134.325,112.417 126.916,119.463 128.238 C 120.664 128.464,122.428 129.954,129.357 136.601 C 136.038 143.010,137.914 144.607,138.394 144.293 C 138.727 144.074,140.048 142.688,141.329 141.213 C 142.610 139.737,144.052 138.095,144.534 137.565 C 145.016 137.034,147.926 133.720,150.999 130.200 C 154.073 126.680,157.334 122.990,158.247 122.000 C 159.160 121.010,160.603 119.373,161.454 118.363 C 164.690 114.518,168.108 113.596,170.784 115.848 M279.923 131.654 C 283.900 134.471,283.725 140.220,279.600 142.296 C 277.876 143.163,193.419 143.613,190.293 142.771 C 184.653 141.253,184.046 132.577,189.495 131.374 C 190.103 131.240,190.780 131.068,191.000 130.991 C 192.669 130.412,279.080 131.057,279.923 131.654 M171.367 187.394 C 174.032 190.059,173.806 193.155,170.689 196.697 C 169.540 198.003,166.890 201.018,164.800 203.398 C 162.710 205.778,160.818 207.922,160.596 208.163 C 160.373 208.403,158.215 210.850,155.798 213.600 C 139.111 232.593,138.948 232.700,133.791 228.118 C 125.877 221.087,112.763 207.747,112.385 206.345 C 111.370 202.575,114.022 199.200,118.000 199.200 C 120.658 199.200,120.668 199.208,131.897 210.083 C 138.613 216.587,137.665 216.336,141.059 212.509 C 142.566 210.808,144.613 208.513,145.607 207.409 C 146.601 206.304,148.758 203.870,150.401 202.000 C 152.045 200.130,153.485 198.510,153.602 198.400 C 153.719 198.290,155.763 195.950,158.144 193.200 C 164.272 186.122,164.430 186.000,167.472 186.000 C 169.795 186.000,170.072 186.099,171.367 187.394 M279.586 202.319 C 283.885 204.431,283.893 210.780,279.599 213.000 C 277.682 213.992,190.781 213.895,188.828 212.899 C 184.665 210.776,184.558 204.848,188.642 202.507 L 190.200 201.613 234.200 201.626 C 274.807 201.637,278.307 201.691,279.586 202.319 M163.204 257.300 C 166.376 259.459,166.187 258.043,166.311 280.480 C 166.436 303.006,166.469 302.730,163.409 304.700 L 162.011 305.600 141.786 305.600 C 119.480 305.600,120.216 305.679,118.221 303.063 L 117.200 301.724 117.201 281.162 C 117.204 253.294,114.134 256.404,141.641 256.401 L 161.882 256.400 163.204 257.300 M129.467 269.067 C 128.896 269.637,129.165 292.673,129.748 293.157 C 130.137 293.480,133.711 293.581,142.048 293.506 L 153.800 293.400 153.906 281.100 L 154.012 268.800 141.872 268.800 C 135.196 268.800,129.613 268.920,129.467 269.067 M237.092 275.586 C 241.336 277.512,241.810 283.284,237.950 286.037 L 236.600 287.000 213.171 287.000 L 189.742 287.000 188.273 286.000 C 184.172 283.208,185.104 276.587,189.790 275.224 C 192.553 274.420,235.243 274.747,237.092 275.586 M279.806 275.731 C 281.638 276.841,282.800 278.886,282.800 281.000 C 282.800 286.065,280.769 287.000,269.769 287.000 L 260.938 287.000 259.468 285.879 C 255.363 282.748,256.259 276.693,261.048 275.199 C 263.348 274.482,278.451 274.910,279.806 275.731 " stroke="none" fill="#f2f2f2" fill-rule="evenodd"></path><path id="path3" d="M82.243 60.633 C 81.892 61.547,81.955 369.710,82.306 370.262 C 82.468 370.516,82.600 300.811,82.600 215.362 C 82.600 129.913,82.574 60.000,82.543 60.000 C 82.511 60.000,82.376 60.285,82.243 60.633 M120.096 257.198 C 117.099 259.025,117.203 258.164,117.201 281.162 L 117.200 301.724 118.221 303.063 C 120.216 305.679,119.480 305.600,141.786 305.600 L 162.011 305.600 163.409 304.700 C 166.469 302.730,166.436 303.006,166.311 280.480 C 166.187 258.043,166.376 259.459,163.204 257.300 L 161.882 256.400 141.641 256.401 C 122.149 256.403,121.352 256.432,120.096 257.198 M153.906 281.100 L 153.800 293.400 142.048 293.506 C 133.711 293.581,130.137 293.480,129.748 293.157 C 129.165 292.673,128.896 269.637,129.467 269.067 C 129.613 268.920,135.196 268.800,141.872 268.800 L 154.012 268.800 153.906 281.100 M305.381 323.700 L 303.800 325.400 305.500 323.819 C 306.435 322.949,307.200 322.184,307.200 322.119 C 307.200 321.816,306.852 322.119,305.381 323.700 M289.385 339.700 L 287.400 341.800 289.500 339.815 C 290.655 338.723,291.600 337.778,291.600 337.715 C 291.600 337.417,291.229 337.749,289.385 339.700 M272.587 356.500 L 270.200 359.000 272.700 356.613 C 274.075 355.299,275.200 354.174,275.200 354.113 C 275.200 353.817,274.805 354.178,272.587 356.500 M255.998 373.002 L 253.419 375.604 170.610 375.502 C 125.064 375.446,87.440 375.253,87.000 375.072 C 86.560 374.892,86.650 375.021,87.200 375.358 C 88.090 375.904,97.292 375.973,170.811 375.986 L 253.421 376.000 256.200 373.200 C 257.728 371.660,258.888 370.400,258.778 370.400 C 258.667 370.400,257.416 371.571,255.998 373.002 M82.800 371.452 C 82.800 371.664,83.565 372.549,84.500 373.419 L 86.200 375.000 84.600 373.206 C 83.720 372.220,82.955 371.335,82.900 371.239 C 82.845 371.144,82.800 371.240,82.800 371.452 " stroke="none" fill="#fc8e96" fill-rule="evenodd"></path><path id="path4" d="M130.400 42.189 L 130.400 54.379 124.500 54.501 L 118.600 54.623 124.900 54.712 L 131.200 54.800 131.200 42.400 C 131.200 34.400,131.058 30.000,130.800 30.000 C 130.542 30.000,130.400 34.330,130.400 42.189 M268.800 42.400 L 268.800 54.800 275.100 54.712 L 281.400 54.623 275.500 54.501 L 269.600 54.379 269.600 42.189 C 269.600 34.330,269.458 30.000,269.200 30.000 C 268.942 30.000,268.800 34.400,268.800 42.400 M84.286 373.603 C 85.214 374.570,86.035 375.280,86.112 375.180 C 86.188 375.081,85.429 374.290,84.425 373.422 L 82.600 371.844 84.286 373.603 " stroke="none" fill="#d49c34" fill-rule="evenodd"></path></g></svg>